<?xml version="1.0" encoding="utf-8"?>
<!-- Svg Vector Icons : http://www.onlinewebfonts.com/icon -->
<!DOCTYPE svg PUBLIC "-//W3C//DTD SVG 1.1//EN" "http://www.w3.org/Graphics/SVG/1.1/DTD/svg11.dtd">
<svg version="1.1" xmlns="http://www.w3.org/2000/svg" xmlns:xlink="http://www.w3.org/1999/xlink" x="0px" y="0px" viewBox="0 0 1000 1000" enable-background="new 0 0 1000 1000" xml:space="preserve">
<metadata> Svg Vector Icons : http://www.onlinewebfonts.com/icon </metadata>
<g><g transform="translate(0.000000,511.000000) scale(0.100000,-0.100000)"><path d="M4459.4,3912.8c-34.1-4.3-168.3-19.2-298.3-32C2706,3736,1412.8,3111.8,895.1,2306.4c-140.6-217.3-259.9-575.2-259.9-779.8v-51.1h4356.9H9349v102.3c-2.1,355.8-228,790.4-598.7,1142c-617.9,588-1589.4,986.4-2810.2,1154.8C5707.9,3904.3,4615,3934.1,4459.4,3912.8z M3858.6,3243.9c72.4-81,66-153.4-19.2-228c-183.2-166.2-500.7,2.1-392,206.7c38.3,70.3,130,108.7,242.9,98C3777.7,3314.2,3807.5,3301.4,3858.6,3243.9z M6560.1,3273.7c104.4-93.7,91.6-210.9-27.7-287.6c-125.7-76.7-340.9-21.3-370.7,98c-36.2,144.9,78.8,253.5,253.5,238.6C6472.8,3318.4,6534.6,3297.1,6560.1,3273.7z M2409.9,2534.4c81-36.2,112.9-70.3,132.1-147c12.8-49,2.1-72.4-61.8-136.4c-74.6-74.6-83.1-76.7-198.1-68.2c-98,8.5-130,21.3-170.4,68.2c-87.3,102.3-59.6,213.1,68.2,279.1C2258.6,2568.5,2320.4,2570.6,2409.9,2534.4z M5130.6,2521.6c198.1-104.4,98-343-144.9-343c-78.8,0-106.5,12.8-166.2,72.4c-40.5,40.5-72.4,89.5-72.4,112.9c0,93.7,132.1,196,255.7,198.1C5032.5,2562.1,5090.1,2545,5130.6,2521.6z M7864,2534.4c81-36.2,112.9-70.3,132.1-147c12.8-49,2.1-72.4-61.8-136.4c-74.6-74.6-83.1-76.7-193.9-68.2c-144.9,12.8-223.7,74.6-223.7,176.8c0,78.8,32,125.7,117.2,170.4C7712.8,2568.5,7774.5,2570.6,7864,2534.4z"/><path d="M1214.7,1143.1c-225.8-112.9-302.5-272.7-302.5-634.9c0-277,42.6-400.5,181.1-522c170.4-149.1,38.3-140.6,2068.7-147l1836.5-6.4l8.5,138.5c10.7,179,78.8,285.5,232.2,362.2c134.2,66,251.4,70.3,370.7,14.9C5774,271.8,5876.2,112,5876.2-69.1v-98l1401.9,6.4l1399.8,6.4l115.1,63.9c204.5,112.9,283.3,257.8,296.1,556.1c12.8,300.4-25.6,430.4-172.6,573.1c-138.5,134.2-221.6,159.8-517.7,159.8h-232.2V1043c0-138.5-6.4-168.3-61.8-245c-117.2-170.4-353.7-238.6-534.7-155.5c-176.8,78.8-281.2,264.2-259.9,451.7l12.8,104.4H5345.7H3368.6l-10.6-108.7c-17-176.8-134.2-296.1-308.9-311.1c-202.4-21.3-372.8,127.8-377.1,326l-2.1,93.7h-673.3h-671.1L1214.7,1143.1z M1642.9,678.7c95.9-40.5,144.9-102.3,157.7-200.3c21.3-157.7-91.6-281.2-257.8-281.2c-98,0-219.4,102.3-238.6,202.4c-19.2,102.3,44.8,223.7,140.6,270.6C1534.2,717,1553.4,717,1642.9,678.7z"/><path d="M411.4-482.5c-108.7-51.1-232.2-178.9-279.1-289.7c-27.7-66.1-34.1-144.9-32-349.4c2.1-308.9,32-394.1,172.6-519.8c170.4-155.5-238.6-142.8,4725.5-142.8h4491.1l117.2,59.7c132.1,66,240.8,196,277,330.2c12.8,51.1,19.2,191.7,14.9,334.5c-8.5,277-42.6,368.6-172.6,483.6c-161.9,142.7-51.1,136.3-2209.4,125.7c-1071.7-6.4-2007-10.7-2077.3-10.7s-468.7,4.3-884.2,10.7l-754.2,10.7l-539-539l-539-539l-539,539L1647.2-442h-575.2C556.3-442,488.1-446.2,411.4-482.5z"/><path d="M639.4-2448.9c8.5-330.2,17-409.1,57.5-515.6c59.7-170.4,151.3-306.8,285.5-432.5c134.2-125.7,225.8-183.2,389.9-247.1L1498-3691l3436.5-6.4c3794.5-6.4,3579.3-12.8,3847.7,130c159.8,85.2,345.1,264.2,432.5,419.7c115,202.4,134.2,308.9,134.2,718v368.6H4989.9h-4359L639.4-2448.9z"/></g></g>
</svg>